# xmcd CD database file
#
# Track frame offsets:
#	150
#	17159
#	27944
#	45959
#	62398
#	79027
#	93640
#	107609
#	121296
#	142159
#	159047
#	169569
#	196403
#	235998
#
# Disc length: 4210 seconds
#
# Revision: 0
# Processed by: cddbd v1.5.2PL0 Copyright (c) Steve Scherf et al.
# Submitted via: CDex 1.70beta2
#
DISCID=a710700e
DTITLE=Pepa Streichl - BLUES BAZZAR
DYEAR=1998
DGENRE=Blues
TTITLE0=Bílé Blues
TTITLE1=Alpaka Boogie
TTITLE2=Blues pro nás dva
TTITLE3=Blues in G
TTITLE4=Den, kdy jsem tě ztratil
TTITLE5=Alberta
TTITLE6=Ostravice
TTITLE7=Blues Bazzar
TTITLE8=Lulie, to ti chci říci
TTITLE9=Tlusté Blues
TTITLE10=Chlap prdelka
TTITLE11=St. James Infirmary
TTITLE12=Blues pro vrchního
TTITLE13=Julia
EXTD=YEAR: 1998
EXTT0=
EXTT1=
EXTT2=
EXTT3=
EXTT4=
EXTT5=
EXTT6=
EXTT7=
EXTT8=
EXTT9=
EXTT10=
EXTT11=
EXTT12=
EXTT13=
PLAYORDER=
